<?xml version="1.0" encoding="utf-8"?>
<!-- Generator: Adobe Illustrator 22.1.0, SVG Export Plug-In . SVG Version: 6.00 Build 0)  -->
<svg version="1.1" id="Layer_1" xmlns="http://www.w3.org/2000/svg" xmlns:xlink="http://www.w3.org/1999/xlink" x="0px" y="0px"
	 viewBox="0 0 617.7 381" style="enable-background:new 0 0 617.7 381;" xml:space="preserve">
<style type="text/css">
	.st0{fill:none;}
	.st1{fill:#E1D5E7;stroke:#9673A6;}
	.st2{fill:#FFFFFF;stroke:#000000;}
	.st3{font-family:'ArialMT';}
	.st4{font-size:12px;}
	.st5{fill:#DAE8FC;stroke:#6C8EBF;}
	.st6{fill:#D5E8D4;stroke:#82B366;}
	.st7{fill:#F8CECC;stroke:#B85450;}
	.st8{fill:none;stroke:#3B3B3B;stroke-width:2;stroke-miterlimit:10;}
	.st9{fill:#3B3B3B;stroke:#3B3B3B;stroke-width:2;stroke-miterlimit:10;}
	.st10{fill:#B85450;}
	.st11{font-family:'Roboto-Regular';}
	.st12{fill:#82B366;}
	.st13{fill:#6C8EBF;}
	.st14{fill:#9673A6;}
</style>
<path class="st0" d="z"/>
<g>
	<rect x="0.5" y="0.5" pointer-events="all" class="st1" width="500" height="80"/>
	<rect x="10.5" y="20.5" pointer-events="all" class="st2" width="480" height="40"/>
	<g transform="translate(-0.5 -0.5)">
		<text transform="matrix(1 0 0 1 224.4844 44.5)" class="st3 st4">Applicatie</text>
	</g>
	<rect x="0.5" y="80.5" pointer-events="all" class="st5" width="500" height="80"/>
	<rect x="0.5" y="160.5" pointer-events="all" class="st6" width="500" height="80"/>
	<rect x="0.5" y="240.5" pointer-events="all" class="st7" width="500" height="140"/>
	<rect x="10.5" y="330.5" pointer-events="all" class="st2" width="480" height="40"/>
	<g transform="translate(-0.5 -0.5)">
		<text transform="matrix(1 0 0 1 224.4902 354.5)" class="st3 st4">Hardware</text>
	</g>
	<path pointer-events="stroke" class="st8" d="M250.5,308.7v11.8v-10l0,11.7"/>
	<path pointer-events="all" class="st9" d="M250.5,302.7l4,8l-4-2l-4,2L250.5,302.7z"/>
	<path pointer-events="all" class="st9" d="M250.5,328.3l-4-8l4,2l4-2L250.5,328.3z"/>
	<rect x="10.5" y="260.5" pointer-events="all" class="st2" width="480" height="40"/>
	<g transform="translate(-0.5 -0.5)">
		<text transform="matrix(1 0 0 1 183.2637 284.5)" class="st3 st4">Hardware drivers (DAVE)</text>
	</g>
	<rect x="255.5" y="180.5" pointer-events="all" class="st2" width="235" height="40"/>
	<g transform="translate(-0.5 -0.5)">
		<text transform="matrix(1 0 0 1 334.8193 204.5)" class="st3 st4">Sensor drivers</text>
	</g>
	<path pointer-events="stroke" class="st8" d="M435.5,92.3v-5.9c0-3.9-3.3-5.9-10-5.9h-10c-6.7,0-10-1.9-10-5.7l0-5.7"/>
	<path pointer-events="all" class="st9" d="M435.5,98.3l-4-8l4,2l4-2L435.5,98.3z"/>
	<path pointer-events="all" class="st9" d="M405.5,63.1l4,8l-4-2l-4,2L405.5,63.1z"/>
	<rect x="380.5" y="100.5" pointer-events="all" class="st2" width="110" height="40"/>
	<g transform="translate(-0.5 -0.5)">
		<text transform="matrix(1 0 0 1 397.1533 124.5)" class="st3 st4">Communicatie</text>
	</g>
	<path pointer-events="stroke" class="st8" d="M186.8,172.3v-5.9c0-3.9,3.3-5.9,10-5.9h107.5c6.7,0,10,2,10,5.9v5.9"/>
	<path pointer-events="all" class="st9" d="M186.8,178.3l-4-8l4,2l4-2L186.8,178.3z"/>
	<path pointer-events="all" class="st9" d="M314.3,178.3l-4-8l4,2l4-2L314.3,178.3z"/>
	<rect x="10.5" y="180.5" pointer-events="all" class="st2" width="235" height="40"/>
	<g transform="translate(-0.5 -0.5)">
		<text transform="matrix(1 0 0 1 113.834 204.5)" class="st3 st4">Utility</text>
	</g>
	<rect x="135.5" y="100.5" pointer-events="all" class="st2" width="110" height="40"/>
	<g transform="translate(-0.5 -0.5)">
		<text transform="matrix(1 0 0 1 174.167 124.5)" class="st3 st4">Filters</text>
	</g>
	<path pointer-events="stroke" class="st8" d="M190.5,92.3l0-5.9c0-3.9,3.3-5.9,10-5.9h5.1c3.4,0,5.1-2,5.1-5.9l0-5.9"/>
	<path pointer-events="all" class="st9" d="M190.5,98.3l-4-8l4,2l4-2L190.5,98.3z"/>
	<path pointer-events="all" class="st9" d="M210.7,62.7l4,8l-4-2l-4,2L210.7,62.7z"/>
	<path pointer-events="stroke" class="st8" d="M128,172.3v-41c0-6.7-3.3-10-10-10H70.4c-6.7,0-10-3.3-10-10V70.6"/>
	<path pointer-events="all" class="st9" d="M128,178.3l-4-8l4,2l4-2L128,178.3z"/>
	<path pointer-events="all" class="st9" d="M60.4,64.6l4,8l-4-2l-4,2L60.4,64.6z"/>
	<path pointer-events="stroke" class="st8" d="M315.5,92.3v-5.9c0-3.9-3.3-5.9-10-5.9h-5.4c-3.6,0-5.4-2.1-5.4-6.3l0-6.3"/>
	<path pointer-events="all" class="st9" d="M315.5,98.3l-4-8l4,2l4-2L315.5,98.3z"/>
	<path pointer-events="all" class="st9" d="M294.7,61.9l4,8l-4-2l-4,2L294.7,61.9z"/>
	<path pointer-events="stroke" class="st8" d="M315.5,148.7v5.9c0,3.9,3.3,5.9,10,5.9H363c6.7,0,10,2,10,5.9v5.9"/>
	<path pointer-events="all" class="st9" d="M315.5,142.7l4,8l-4-2l-4,2L315.5,142.7z"/>
	<path pointer-events="all" class="st9" d="M373,178.3l-4-8l4,2l4-2L373,178.3z"/>
	<rect x="255.5" y="100.5" pointer-events="all" class="st2" width="120" height="40"/>
	<g transform="translate(-0.5 -0.5)">
		<text transform="matrix(1 0 0 1 268.8096 124.5)" class="st3 st4">Sensor abstractie</text>
	</g>
	<path pointer-events="stroke" class="st8" d="M186.8,228.7v5.9c0,4-3.3,5.9-10,5.9h-36.3c-6.7,0-10,1.9-10,5.8v5.8"/>
	<path pointer-events="all" class="st9" d="M186.8,222.7l4,8l-4-2l-4,2L186.8,222.7z"/>
	<path pointer-events="all" class="st9" d="M130.5,258.3l-4-8l4,2l4-2L130.5,258.3z"/>
	<path pointer-events="stroke" class="st8" d="M314.3,228.7v5.9c0,4,3.3,5.9,10,5.9h36.3c6.7,0,10,1.9,10,5.8v5.8"/>
	<path pointer-events="all" class="st9" d="M314.3,222.7l4,8l-4-2l-4,2L314.3,222.7z"/>
	<path pointer-events="all" class="st9" d="M370.5,258.3l-4-8l4,2l4-2L370.5,258.3z"/>
</g>
<path class="st0" d="z"/>
<rect x="527" y="303.7" class="st0" width="81.2" height="14"/>
<text transform="matrix(1 0 0 1 527 312.74)" class="st10 st11 st4">Hardware laag</text>
<rect x="527" y="195.4" class="st0" width="81.2" height="14"/>
<text transform="matrix(1 0 0 1 527 204.4066)" class="st12 st11 st4">Drivers</text>
<rect x="527" y="117" class="st0" width="81.2" height="14"/>
<text transform="matrix(1 0 0 1 527 126)" class="st13 st11 st4">Abstractie</text>
<rect x="527" y="33.5" class="st0" width="90.7" height="14"/>
<text transform="matrix(1 0 0 1 527 42.5)" class="st14 st11 st4">Applicatie logica</text>
</svg>
