<?xml version="1.0" encoding="utf-8"?>
<!-- Generator: Adobe Illustrator 22.1.0, SVG Export Plug-In . SVG Version: 6.00 Build 0)  -->
<svg version="1.1" id="Layer_1" xmlns="http://www.w3.org/2000/svg" xmlns:xlink="http://www.w3.org/1999/xlink" x="0px" y="0px"
	 viewBox="0 0 481 191" style="enable-background:new 0 0 481 191;" xml:space="preserve">
<style type="text/css">
	.st0{fill:none;}
	.st1{fill:#FFFFFF;stroke:#000000;}
	.st2{font-family:'ArialMT';}
	.st3{font-size:12px;}
	.st4{fill:#F5F5F5;stroke:#666666;}
</style>
<path class="st0" d="z"/>
<rect x="120.5" y="40.5" pointer-events="all" class="st1" width="120" height="40"/>
<g transform="translate(-0.5 -0.5)">
	<text transform="matrix(1 0 0 1 174.5 64.5)" class="st2 st3">ID</text>
</g>
<rect x="240.5" y="40.5" pointer-events="all" class="st1" width="120" height="40"/>
<g transform="translate(-0.5 -0.5)">
	<text transform="matrix(1 0 0 1 279.7139 64.5)" class="st2 st3">Waarde</text>
</g>
<rect x="240.5" y="150.5" pointer-events="all" class="st1" width="120" height="40"/>
<g transform="translate(-0.5 -0.5)">
	<text transform="matrix(1 0 0 1 297.1631 174.5)" class="st2 st3">1</text>
</g>
<rect x="360.5" y="150.5" pointer-events="all" class="st1" width="120" height="40"/>
<g transform="translate(-0.5 -0.5)">
	<text transform="matrix(1 0 0 1 410.4893 174.5)" class="st2 st3">975</text>
</g>
<rect x="120.5" y="0.5" pointer-events="all" class="st4" width="240" height="40"/>
<g transform="translate(-0.5 -0.5)">
	<text transform="matrix(1 0 0 1 218.8174 24.5)" class="st2 st3">Payload</text>
</g>
<rect x="0.5" y="150.5" pointer-events="all" class="st1" width="120" height="40"/>
<g transform="translate(-0.5 -0.5)">
	<text transform="matrix(1 0 0 1 57.1631 174.5)" class="st2 st3">0</text>
</g>
<rect x="120.5" y="150.5" pointer-events="all" class="st1" width="120" height="40"/>
<g transform="translate(-0.5 -0.5)">
	<text transform="matrix(1 0 0 1 167.1523 174.5)" class="st2 st3">4095</text>
</g>
<rect x="0.5" y="110.5" pointer-events="all" class="st4" width="480" height="40"/>
<g transform="translate(-0.5 -0.5)">
	<text transform="matrix(1 0 0 1 218.8174 134.5)" class="st2 st3">Payload</text>
</g>
<path class="st0" d="z"/>
</svg>
